<?xml version="1.0" encoding="utf-8"?>
<!-- Generator: Adobe Illustrator 19.2.0, SVG Export Plug-In . SVG Version: 6.00 Build 0)  -->
<svg version="1.1" xmlns="http://www.w3.org/2000/svg" xmlns:xlink="http://www.w3.org/1999/xlink" x="0px" y="0px"
	 viewBox="0 0 1214 941" style="enable-background:new 0 0 1214 941;" xml:space="preserve">
<style type="text/css">
	.st0{opacity:0.2;fill:#4E768D;}
	.st1{fill:#52B1DB;}
	.st2{fill:#FFFFFF;}
	.st3{fill:#7A98A9;}
	.st4{fill:#D7F6F0;}
	.st5{fill:#B0EDE1;}
	.st6{fill:#88E3D2;}
	.st7{fill:#61DAC3;}
	.st8{fill:#39D1B4;}
	.st9{fill:#37C2AA;}
	.st10{fill:#34B3A0;}
	.st11{fill:#1A7B72;}
	.st12{fill:#004444;}
	.st13{fill:#FBBDBD;}
	.st14{fill:#FA9C9D;}
	.st15{fill:#F87B7C;}
	.st16{fill:#F65A5B;}
	.st17{fill:#C64748;}
	.st18{fill:#963435;}
	.st19{fill:#652022;}
	.st20{fill:#350D0F;}
	.st21{fill:#BAE0F1;}
	.st22{fill:#97D0E9;}
	.st23{fill:#75C1E2;}
	.st24{fill:#4292B4;}
	.st25{fill:#32728D;}
	.st26{fill:#215366;}
	.st27{fill:#11333F;}
	.st28{fill:#FDDEDE;}
	.st29{fill:#DCEFF8;}
	.st30{fill:#A7BBC6;}
	.st31{fill:#4E768D;}
	.st32{fill:#225470;}
	.st33{fill:#214A63;}
	.st34{fill:#204056;}
	.st35{fill:#163142;}
	.st36{fill:#0D222D;}
	.st37{fill:#D3DDE2;}
	.st38{fill:none;stroke:#4E768D;stroke-miterlimit:10;}
	.st39{opacity:0.5;fill:#4E768D;}
	.st40{opacity:0.25;fill:#4E768D;}
</style>
<g id="BG">
</g>
<g id="CONTENTS">
	<g>
		<g>
			<path class="st2" d="M478.8,199.8v-17.4h4.8c2.2,0,3.7,0.4,4.7,1.1s1.5,1.8,1.5,3.3c0,0.2,0,0.3,0,0.4s0,0.3-0.1,0.5
				s-0.1,0.5-0.1,0.6s-0.2,0.4-0.3,0.6s-0.3,0.5-0.5,0.7s-0.5,0.4-0.8,0.6s-0.7,0.3-1.1,0.5c1.2,0.2,2.2,0.7,2.8,1.5s1,1.7,1,2.8
				c0,1.5-0.5,2.7-1.5,3.6s-2.5,1.3-4.5,1.3H478.8z M480.3,190.1h4c0.6,0,1.1,0,1.6-0.1s0.8-0.3,1.2-0.5s0.6-0.6,0.8-1
				s0.3-1,0.3-1.6c0-1.2-0.4-2.1-1.1-2.5s-1.9-0.7-3.6-0.7h-3.2V190.1z M480.3,198.6h4c3.2,0,4.7-1.2,4.7-3.7c0-1.4-0.4-2.3-1.3-2.8
				s-2.2-0.8-4.1-0.8h-3.3V198.6z"/>
			<path class="st2" d="M496.4,200.1c-1.1,0-1.9-0.2-2.4-0.7s-0.8-1.3-0.8-2.4v-15l1.4-0.1v15c0,0.8,0.1,1.3,0.4,1.6
				s0.7,0.4,1.3,0.4c0.5,0,1.1-0.1,1.8-0.3l0.1,1.1C497.5,200,496.9,200.1,496.4,200.1z"/>
			<path class="st2" d="M505.2,200.1c-1.2,0-2.2-0.3-3.1-0.9s-1.6-1.4-2-2.4s-0.7-2.1-0.7-3.4c0-1,0.1-1.8,0.4-2.7s0.7-1.5,1.2-2.1
				s1.1-1.1,1.9-1.4s1.6-0.5,2.5-0.5c1.2,0,2.2,0.3,3.1,0.9s1.5,1.4,2,2.4s0.7,2.1,0.7,3.4c0,1.3-0.2,2.4-0.7,3.4s-1.1,1.8-2,2.4
				S506.4,200.1,505.2,200.1z M505.3,198.9c0.9,0,1.7-0.2,2.4-0.7s1.1-1.2,1.4-2s0.4-1.7,0.4-2.8c0-1.7-0.4-3-1.1-4
				s-1.8-1.5-3.2-1.5c-0.9,0-1.7,0.3-2.4,0.8s-1.1,1.2-1.4,2s-0.5,1.8-0.5,2.8c0,1.6,0.4,2.9,1.1,3.9S503.9,198.9,505.3,198.9z"/>
			<path class="st2" d="M519.3,200.1c-1.2,0-2.3-0.3-3.2-0.9s-1.6-1.4-2-2.4s-0.7-2.1-0.7-3.3c0-0.9,0.1-1.8,0.4-2.6
				s0.6-1.5,1.1-2.2s1.1-1.1,1.9-1.5s1.6-0.5,2.6-0.5c0.6,0,1.2,0.1,1.8,0.2s1.1,0.4,1.4,0.6l-0.5,1.1c-0.8-0.5-1.8-0.7-2.9-0.7
				c-1.3,0-2.4,0.5-3.2,1.5s-1.2,2.4-1.2,4c0,1.6,0.4,2.9,1.2,3.9s1.8,1.5,3.2,1.5c0.9,0,1.9-0.2,3-0.7l0.2,1
				c-0.4,0.3-0.8,0.5-1.4,0.6S519.9,200.1,519.3,200.1z"/>
			<path class="st2" d="M525.3,199.8V182l1.4-0.1V192v1.1c0.1-0.1,0.3-0.4,0.8-0.8s0.7-0.7,0.7-0.8l4.4-4.6h2l-5.4,5.4l5.8,7.5h-1.8
				l-4.9-6.7l-1.5,1.4v5.3H525.3z"/>
			<path class="st2" d="M545.4,199.8l-4.9-12.8h1.6l3,8.1c0.2,0.5,0.3,1,0.6,1.6s0.4,1,0.5,1.3l0.2,0.5c0.1-0.5,0.3-1,0.6-1.6
				s0.5-1.2,0.7-1.8c0.2-0.7,0.6-1.7,1.1-3s1.2-3.1,1.8-5.1h1.6l-5,12.8H545.4z"/>
			<path class="st2" d="M557.6,200.1c-0.8,0-1.6-0.1-2.3-0.3s-1.3-0.4-1.7-0.7l0.2-1.2c1.3,0.7,2.5,1,3.7,1c2.1,0,3.2-0.8,3.3-2.4
				c0-0.7-0.2-1.2-0.6-1.5s-1.3-0.8-2.6-1.2c-0.7-0.2-1-0.4-1.1-0.4c-2-0.6-3-1.7-3-3.2c0-0.9,0.4-1.7,1.2-2.4s1.9-1,3.2-1
				s2.6,0.3,3.8,0.8l-0.5,1.1c-1.2-0.5-2.3-0.7-3.4-0.7c-0.9,0-1.6,0.2-2.1,0.6s-0.8,1-0.8,1.6c0,0.6,0.2,1,0.5,1.3s1,0.6,2,0.9
				c0.1,0,0.3,0.1,0.6,0.2s0.5,0.2,0.5,0.2c1.4,0.4,2.3,0.9,2.8,1.5s0.8,1.3,0.8,2.3c0,1.1-0.4,2-1.3,2.6S558.9,200.1,557.6,200.1z"
				/>
			<path class="st2" d="M566.6,199.9c-0.4,0-0.7-0.1-0.9-0.4s-0.3-0.5-0.3-0.9c0-0.3,0.1-0.6,0.3-0.8s0.5-0.4,0.9-0.4
				c0.4,0,0.8,0.1,1,0.4s0.3,0.5,0.3,0.8c0,0.3-0.1,0.6-0.3,0.9S567,199.9,566.6,199.9z"/>
			<path class="st2" d="M576.9,199.8v-17.4h1.5v17.4H576.9z"/>
			<path class="st2" d="M582.4,199.8V187h1.3l0.2,2c0.5-0.7,1.1-1.2,1.9-1.6s1.6-0.6,2.5-0.6c1.5,0,2.6,0.4,3.3,1.2s1,2.1,1,3.9v8
				h-1.5v-8.6c0-1.1-0.3-2-0.7-2.5s-1.2-0.8-2.2-0.8c-1.2,0-2.1,0.3-2.9,0.9s-1.2,1.3-1.4,2.3c0,0.4,0,0.8,0,1.1v7.5H582.4z"/>
			<path class="st2" d="M599.1,200.1c-1.1,0-1.9-0.2-2.4-0.7s-0.8-1.3-0.8-2.4v-15l1.4-0.1v15c0,0.8,0.1,1.3,0.4,1.6
				s0.7,0.4,1.3,0.4c0.5,0,1.1-0.1,1.8-0.3l0.1,1.1C600.2,200,599.6,200.1,599.1,200.1z"/>
			<path class="st2" d="M602.8,184.3v-2h1.5v2H602.8z M602.8,199.8V187h1.5v12.8H602.8z"/>
			<path class="st2" d="M607.9,199.8V187h1.3l0.2,2c0.5-0.7,1.1-1.2,1.9-1.6s1.6-0.6,2.5-0.6c1.5,0,2.6,0.4,3.3,1.2s1,2.1,1,3.9v8
				h-1.5v-8.6c0-1.1-0.3-2-0.7-2.5s-1.2-0.8-2.2-0.8c-1.2,0-2.1,0.3-2.9,0.9s-1.2,1.3-1.4,2.3c0,0.4,0,0.8,0,1.1v7.5H607.9z"/>
			<path class="st2" d="M626.6,200.1c-1.8,0-3.2-0.6-4.2-1.8s-1.6-2.8-1.6-4.8c0-2,0.5-3.6,1.5-4.8s2.3-1.9,4-1.9
				c1.5,0,2.7,0.5,3.6,1.6s1.4,2.5,1.4,4.3c0,0.1,0,0.2,0,0.4s0,0.4,0,0.5h-8.9c0,1.6,0.4,3,1.2,3.9s1.8,1.4,3.1,1.4
				c0.8,0,1.6-0.1,2.2-0.3s1.3-0.5,1.9-0.8l0.2,1.1C629.7,199.7,628.2,200.1,626.6,200.1z M622.4,192.4h7.3c0-1.4-0.3-2.5-0.9-3.3
				s-1.5-1.1-2.5-1.1c-1.1,0-2,0.4-2.6,1.2S622.5,191.1,622.4,192.4z"/>
			<path class="st2" d="M640.1,199.8v-17.4h9.7l-0.1,1.2h-8.2v6.6h7.8v1.3h-7.8v7.1h8.4l-0.1,1.3H640.1z"/>
			<path class="st2" d="M656.3,200.1c-1.1,0-1.9-0.2-2.4-0.7s-0.8-1.3-0.8-2.4v-15l1.4-0.1v15c0,0.8,0.1,1.3,0.4,1.6
				s0.7,0.4,1.3,0.4c0.5,0,1.1-0.1,1.8-0.3l0.1,1.1C657.3,200,656.7,200.1,656.3,200.1z"/>
			<path class="st2" d="M665,200.1c-1.8,0-3.2-0.6-4.2-1.8s-1.6-2.8-1.6-4.8c0-2,0.5-3.6,1.5-4.8s2.3-1.9,4-1.9
				c1.5,0,2.7,0.5,3.6,1.6s1.4,2.5,1.4,4.3c0,0.1,0,0.2,0,0.4s0,0.4,0,0.5h-8.9c0,1.6,0.4,3,1.2,3.9s1.8,1.4,3.1,1.4
				c0.8,0,1.6-0.1,2.2-0.3s1.3-0.5,1.9-0.8l0.2,1.1C668.1,199.7,666.7,200.1,665,200.1z M660.8,192.4h7.3c0-1.4-0.3-2.5-0.9-3.3
				s-1.5-1.1-2.5-1.1c-1.1,0-2,0.4-2.6,1.2S661,191.1,660.8,192.4z"/>
			<path class="st2" d="M672.7,199.8c0-7.8,0-12,0-12.8h1.3l0.2,2c0.4-0.6,0.9-1.2,1.7-1.6s1.5-0.6,2.4-0.6c2.1,0,3.3,0.8,3.9,2.4
				c0.9-1.6,2.4-2.4,4.3-2.4c1.4,0,2.4,0.4,3.1,1.2s1,2,1,3.6v8.3H689v-6.3c0-0.6,0-1.1,0-1.5s-0.1-0.8-0.1-1.3s-0.1-0.9-0.3-1.1
				s-0.3-0.6-0.5-0.8s-0.4-0.5-0.8-0.6s-0.7-0.2-1.1-0.2c-1,0-1.8,0.3-2.5,0.9s-1.2,1.4-1.4,2.5c0,0.8,0,1.4,0.1,1.9v6.7H681v-6.5
				c0-0.7,0-1.2-0.1-1.7s-0.1-1-0.2-1.4s-0.3-0.9-0.5-1.1s-0.5-0.5-0.8-0.7s-0.7-0.3-1.2-0.3c-1.1,0-2,0.3-2.7,0.8s-1.2,1.3-1.4,2.3
				c0,0.3,0,0.8,0,1.4v7.3H672.7z"/>
			<path class="st2" d="M699,200.1c-1.8,0-3.2-0.6-4.2-1.8s-1.6-2.8-1.6-4.8c0-2,0.5-3.6,1.5-4.8s2.3-1.9,4-1.9
				c1.5,0,2.7,0.5,3.6,1.6s1.4,2.5,1.4,4.3c0,0.1,0,0.2,0,0.4s0,0.4,0,0.5h-8.9c0,1.6,0.4,3,1.2,3.9s1.8,1.4,3.1,1.4
				c0.8,0,1.6-0.1,2.2-0.3s1.3-0.5,1.9-0.8l0.2,1.1C702.1,199.7,700.6,200.1,699,200.1z M694.8,192.4h7.3c0-1.4-0.3-2.5-0.9-3.3
				s-1.5-1.1-2.5-1.1c-1.1,0-2,0.4-2.6,1.2S694.9,191.1,694.8,192.4z"/>
			<path class="st2" d="M706.6,199.8V187h1.3l0.2,2c0.5-0.7,1.1-1.2,1.9-1.6s1.6-0.6,2.5-0.6c1.5,0,2.6,0.4,3.3,1.2s1,2.1,1,3.9v8
				h-1.5v-8.6c0-1.1-0.3-2-0.7-2.5s-1.2-0.8-2.2-0.8c-1.2,0-2.1,0.3-2.9,0.9s-1.2,1.3-1.4,2.3c0,0.4,0,0.8,0,1.1v7.5H706.6z"/>
			<path class="st2" d="M723.7,200.1c-1.1,0-1.9-0.2-2.4-0.7s-0.8-1.3-0.8-2.4V188h-1.8l0.1-0.9l1.7-0.2l0.4-2.9l1-0.1v3h3.8v1.1
				H722v8.6c0,0.9,0.1,1.5,0.4,1.8s0.8,0.5,1.6,0.5c0.5,0,1.1-0.1,1.8-0.3l0.1,1.1C725,200,724.2,200.1,723.7,200.1z"/>
			<path class="st2" d="M731.8,200.1c-0.8,0-1.6-0.1-2.3-0.3s-1.3-0.4-1.7-0.7l0.2-1.2c1.3,0.7,2.5,1,3.7,1c2.1,0,3.2-0.8,3.3-2.4
				c0-0.7-0.2-1.2-0.6-1.5s-1.3-0.8-2.6-1.2c-0.7-0.2-1-0.4-1.1-0.4c-2-0.6-3-1.7-3-3.2c0-0.9,0.4-1.7,1.2-2.4s1.9-1,3.2-1
				s2.6,0.3,3.8,0.8l-0.5,1.1c-1.2-0.5-2.3-0.7-3.4-0.7c-0.9,0-1.6,0.2-2.1,0.6s-0.8,1-0.8,1.6c0,0.6,0.2,1,0.5,1.3s1,0.6,2,0.9
				c0.1,0,0.3,0.1,0.6,0.2s0.5,0.2,0.5,0.2c1.4,0.4,2.3,0.9,2.8,1.5s0.8,1.3,0.8,2.3c0,1.1-0.4,2-1.3,2.6S733.1,200.1,731.8,200.1z"
				/>
		</g>
	</g>
	<g>
		<g>
			<path class="st3" d="M260.5,710.3v-6.1l1.9-0.2v16h-1.9v-1.7c-0.8,1.3-1.8,2-3.2,2c-1.6,0-2.7-0.6-3.5-1.7s-1.1-2.6-1.1-4.3
				c0-2.1,0.5-3.6,1.6-4.7c0.7-0.8,1.7-1.1,3-1.1c0.8,0,1.5,0.2,2.1,0.5S260.3,709.7,260.5,710.3z M260.5,714.3
				c0-1.8-0.3-2.9-0.8-3.5c-0.5-0.6-1.3-0.9-2.2-0.9c-1.3,0-2.2,0.7-2.6,2c-0.2,0.7-0.3,1.6-0.3,2.6c0,2.9,1,4.4,2.9,4.4
				C259.5,718.8,260.5,717.3,260.5,714.3z"/>
			<path class="st3" d="M266.7,710.2v-1.4h5.1v9.8h3.2v1.4h-8.7v-1.4h3.6v-8.4H266.7z M269.6,705.8v-1c0-0.2,0.1-0.5,0.4-0.7
				c0.3-0.2,0.6-0.3,0.8-0.3s0.5,0.1,0.8,0.3c0.3,0.2,0.4,0.4,0.4,0.7v1c0,0.2-0.1,0.5-0.4,0.7c-0.3,0.2-0.6,0.3-0.8,0.3
				s-0.5-0.1-0.8-0.3C269.7,706.3,269.6,706,269.6,705.8z"/>
			<path class="st3" d="M286.5,714.8c0.4,0.5,0.7,1.3,0.7,2.3c0,1-0.4,1.8-1.1,2.4c-0.7,0.6-1.7,0.9-2.8,0.9c-0.8,0-1.6-0.1-2.3-0.3
				c-0.8-0.2-1.3-0.4-1.7-0.7l0.5-1.3c0.3,0.2,0.7,0.4,1.4,0.5c0.6,0.2,1.3,0.3,2,0.3c0.7,0,1.3-0.2,1.7-0.5
				c0.4-0.3,0.7-0.7,0.7-1.2s-0.1-0.9-0.3-1.2c-0.2-0.3-0.6-0.5-1.2-0.7l-1.9-0.5c-1.1-0.3-1.8-0.7-2.2-1.2c-0.4-0.5-0.5-1.2-0.5-2
				s0.3-1.5,0.9-2.2c0.6-0.7,1.6-1,2.8-1h0.1c1.4,0,2.5,0.3,3.5,0.8l-0.4,1.3c-1-0.4-2-0.6-3-0.6c-0.6,0-1.2,0.2-1.6,0.5
				c-0.4,0.3-0.6,0.7-0.6,1.2s0.1,0.8,0.3,1.1c0.2,0.2,0.6,0.4,1.2,0.6l2,0.5C285.3,713.9,286,714.2,286.5,714.8z"/>
			<path class="st3" d="M296,720.3c-0.7,0-1.4-0.2-1.9-0.5s-1-0.8-1.3-1.3v5.9l-1.9,0.2v-15.8h1.9v1.5c0.3-0.6,0.8-1,1.3-1.4
				s1.2-0.5,1.9-0.5c1.9,0,3.2,0.8,3.9,2.3c0.5,1,0.7,2.1,0.7,3.5c0,2.1-0.5,3.8-1.5,4.9C298.4,719.9,297.3,720.3,296,720.3z
				 M292.8,714.3c0,3,1.1,4.5,3.2,4.5c1.9,0,2.8-1.5,2.8-4.5c0-1.7-0.3-2.8-0.8-3.5c-0.5-0.7-1.2-1-2.1-1c-1.8,0-2.8,1-3,3
				C292.8,713.3,292.8,713.8,292.8,714.3z"/>
			<path class="st3" d="M312.5,720h-1.5c-1.3,0-2.3-0.1-2.8-0.4c-0.3-0.2-0.6-0.3-0.8-0.5c-0.5-0.5-0.8-1.7-0.8-3.5v-10.2h-3.4V704
				h5.2v11.5c0,1.4,0.1,2.2,0.4,2.5c0.2,0.3,0.6,0.5,0.9,0.5c0.4,0,0.8,0.1,1.1,0.1h1.7L312.5,720z"/>
			<path class="st3" d="M323.2,712.2c0-1.6-0.7-2.4-2-2.4c-0.6,0-1.4,0.1-2.1,0.2c-0.8,0.2-1.3,0.3-1.6,0.4l-0.4-1.4
				c1.4-0.5,2.7-0.7,4-0.7s2.2,0.3,3,0.9s1.1,1.4,1.1,2.6v8.1h-1.5l-0.2-1.3c-0.4,0.4-1,0.8-1.7,1.1c-0.7,0.3-1.4,0.4-2,0.4
				c-1,0-1.7-0.3-2.4-0.9c-0.6-0.6-0.9-1.4-0.9-2.4c0-1,0.4-1.8,1.2-2.3c0.6-0.3,1.1-0.6,1.8-0.7c0.6-0.1,1.4-0.3,2.4-0.4l1.5-0.2
				V712.2z M323.2,717.5v-2.9l-1.5,0.2c-1.1,0.2-1.8,0.3-2.2,0.5c-0.9,0.3-1.4,0.9-1.4,1.8c0,0.6,0.2,1,0.5,1.4s0.8,0.5,1.4,0.5
				C321.2,718.9,322.3,718.4,323.2,717.5z"/>
			<path class="st3" d="M333.7,717.9l3-9.1h2c-2.1,5.9-3.3,9.3-3.7,10.2c-0.4,1-0.6,1.6-0.8,2s-0.3,0.7-0.5,1.1s-0.4,0.7-0.6,1
				c-0.2,0.3-0.5,0.5-0.7,0.7c-0.2,0.1-0.5,0.3-1,0.4c-0.4,0.1-1.3,0.2-2.5,0.2l-0.2-1.6c0.9,0,1.5,0,1.6-0.1c0.2,0,0.4-0.1,0.5-0.1
				c0.2-0.1,0.3-0.1,0.4-0.2c0.1-0.1,0.2-0.2,0.3-0.3c0.3-0.3,0.7-1.1,1.1-2.3c-1.9-4.4-3.3-7.7-4.2-9.9l-0.4-1.1h2L333.7,717.9z"/>
			<path class="st3" d="M347.8,711.5h-3.1v-3.1h3.1V711.5z M347.8,718.5h-3.1v-3.1h3.1V718.5z"/>
			<path class="st2" d="M368.5,710.3c0.8-1.3,1.9-1.9,3.4-1.9s2.6,0.5,3.3,1.6c0.7,1.1,1.1,2.5,1.1,4.1c0,2.2-0.5,3.8-1.5,4.9
				c-0.7,0.8-1.7,1.2-3,1.2c-0.8,0-1.5-0.2-1.9-0.5c-0.4-0.3-0.9-0.8-1.3-1.3l0,1.5h-1.8v-15.8l1.9-0.2V710.3z M368.6,715.7
				c0.1,1,0.4,1.7,0.9,2.3c0.5,0.6,1.2,0.8,2.1,0.8c1.3,0,2.1-0.7,2.6-2c0.2-0.7,0.3-1.4,0.3-2.2c0-0.7,0-1.3-0.1-1.7
				c-0.1-1-0.4-1.7-0.8-2.3c-0.4-0.6-1.1-0.8-2-0.8c-1.5,0-2.5,0.7-2.8,2.2c-0.1,0.6-0.2,1.3-0.2,2
				C368.5,714.7,368.5,715.3,368.6,715.7z"/>
			<path class="st2" d="M388.2,720h-1.5c-1.3,0-2.3-0.1-2.8-0.4c-0.3-0.2-0.6-0.3-0.8-0.5c-0.5-0.5-0.8-1.7-0.8-3.5v-10.2h-3.4V704
				h5.2v11.5c0,1.4,0.1,2.2,0.4,2.5c0.2,0.3,0.6,0.5,0.9,0.5c0.4,0,0.8,0.1,1.1,0.1h1.7L388.2,720z"/>
			<path class="st2" d="M400.1,710.1c0.8,1.1,1.2,2.5,1.2,4.3s-0.4,3.2-1.3,4.3c-0.9,1.1-2.1,1.6-3.6,1.6c-0.8,0-1.5-0.2-2.2-0.5
				s-1.1-0.7-1.5-1.3c-0.8-1.1-1.2-2.5-1.2-4.2s0.4-3.2,1.3-4.2c0.9-1.1,2.1-1.6,3.7-1.6C398.1,708.4,399.3,709,400.1,710.1z
				 M396.4,718.8c1.3,0,2.2-0.6,2.7-1.9c0.3-0.7,0.4-1.4,0.4-2.1c0-0.7,0-1.3-0.1-1.7c-0.1-0.9-0.4-1.7-0.9-2.3
				c-0.5-0.6-1.2-0.9-2.1-0.9c-1.3,0-2.1,0.7-2.6,2c-0.2,0.7-0.4,1.5-0.4,2.2c0,1.4,0.2,2.5,0.6,3.4
				C394.5,718.4,395.3,718.8,396.4,718.8z"/>
			<path class="st2" d="M413,719.3c-0.7,0.7-1.7,1-3.1,1c-0.8,0-1.6-0.2-2.3-0.5c-0.7-0.3-1.3-0.8-1.7-1.3c-0.9-1.1-1.4-2.5-1.4-4.2
				c0-1,0.2-2,0.6-2.9c0.4-0.9,1.1-1.6,1.9-2.2s1.9-0.8,3.1-0.8c1.2,0,2.2,0.3,2.9,1l-0.5,1.3c-0.8-0.5-1.7-0.8-2.7-0.8
				c-1,0-1.8,0.4-2.5,1.3s-1,1.9-1,3.2c0,1.3,0.3,2.4,1,3.2s1.5,1.3,2.5,1.3c1,0,1.9-0.3,2.7-0.8L413,719.3z"/>
			<path class="st2" d="M419.3,713.3l5-4.6h2.4l-5,4.7l5.7,6.6H425l-4.7-5.7l-1,0.9v4.8h-1.9v-15.8l1.9-0.2V713.3z"/>
			<path class="st2" d="M432.1,723.2l0.8-6.1h2.8l-1.7,6.1H432.1z M435.9,711.4h-3.1v-3.1h3.1V711.4z"/>
		</g>
	</g>
	<g>
		<g>
			<path class="st3" d="M774.2,710.3v-6.1l1.9-0.2v16h-1.9v-1.7c-0.8,1.3-1.8,2-3.2,2c-1.6,0-2.7-0.6-3.5-1.7s-1.1-2.6-1.1-4.3
				c0-2.1,0.5-3.6,1.6-4.7c0.7-0.8,1.7-1.1,3-1.1c0.8,0,1.5,0.2,2.1,0.5S774,709.7,774.2,710.3z M774.2,714.3c0-1.8-0.3-2.9-0.8-3.5
				c-0.5-0.6-1.3-0.9-2.2-0.9c-1.3,0-2.2,0.7-2.6,2c-0.2,0.7-0.3,1.6-0.3,2.6c0,2.9,1,4.4,2.9,4.4
				C773.2,718.8,774.2,717.3,774.2,714.3z"/>
			<path class="st3" d="M780.4,710.2v-1.4h5.1v9.8h3.2v1.4H780v-1.4h3.6v-8.4H780.4z M783.3,705.8v-1c0-0.2,0.1-0.5,0.4-0.7
				c0.3-0.2,0.6-0.3,0.8-0.3s0.5,0.1,0.8,0.3c0.3,0.2,0.4,0.4,0.4,0.7v1c0,0.2-0.1,0.5-0.4,0.7c-0.3,0.2-0.6,0.3-0.8,0.3
				s-0.5-0.1-0.8-0.3C783.4,706.3,783.3,706,783.3,705.8z"/>
			<path class="st3" d="M800.2,714.8c0.4,0.5,0.7,1.3,0.7,2.3c0,1-0.4,1.8-1.1,2.4c-0.7,0.6-1.7,0.9-2.8,0.9c-0.8,0-1.6-0.1-2.3-0.3
				c-0.8-0.2-1.3-0.4-1.7-0.7l0.5-1.3c0.3,0.2,0.7,0.4,1.4,0.5c0.6,0.2,1.3,0.3,2,0.3c0.7,0,1.3-0.2,1.7-0.5
				c0.4-0.3,0.7-0.7,0.7-1.2s-0.1-0.9-0.3-1.2c-0.2-0.3-0.6-0.5-1.2-0.7l-1.9-0.5c-1.1-0.3-1.8-0.7-2.2-1.2c-0.4-0.5-0.5-1.2-0.5-2
				s0.3-1.5,0.9-2.2c0.6-0.7,1.6-1,2.8-1h0.1c1.4,0,2.5,0.3,3.5,0.8l-0.4,1.3c-1-0.4-2-0.6-3-0.6c-0.6,0-1.2,0.2-1.6,0.5
				c-0.4,0.3-0.6,0.7-0.6,1.2s0.1,0.8,0.3,1.1c0.2,0.2,0.6,0.4,1.2,0.6l2,0.5C799,713.9,799.7,714.2,800.2,714.8z"/>
			<path class="st3" d="M809.7,720.3c-0.7,0-1.4-0.2-1.9-0.5s-1-0.8-1.3-1.3v5.9l-1.9,0.2v-15.8h1.9v1.5c0.3-0.6,0.8-1,1.3-1.4
				s1.2-0.5,1.9-0.5c1.9,0,3.2,0.8,3.9,2.3c0.5,1,0.7,2.1,0.7,3.5c0,2.1-0.5,3.8-1.5,4.9C812.1,719.9,811,720.3,809.7,720.3z
				 M806.5,714.3c0,3,1.1,4.5,3.2,4.5c1.9,0,2.8-1.5,2.8-4.5c0-1.7-0.3-2.8-0.8-3.5c-0.5-0.7-1.2-1-2.1-1c-1.8,0-2.8,1-3,3
				C806.5,713.3,806.5,713.8,806.5,714.3z"/>
			<path class="st3" d="M826.2,720h-1.5c-1.3,0-2.3-0.1-2.8-0.4c-0.3-0.2-0.6-0.3-0.8-0.5c-0.5-0.5-0.8-1.7-0.8-3.5v-10.2H817V704
				h5.2v11.5c0,1.4,0.1,2.2,0.4,2.5c0.2,0.3,0.6,0.5,0.9,0.5c0.4,0,0.8,0.1,1.1,0.1h1.7L826.2,720z"/>
			<path class="st3" d="M836.9,712.2c0-1.6-0.7-2.4-2-2.4c-0.6,0-1.4,0.1-2.1,0.2c-0.8,0.2-1.3,0.3-1.6,0.4l-0.4-1.4
				c1.4-0.5,2.7-0.7,4-0.7s2.2,0.3,3,0.9s1.1,1.4,1.1,2.6v8.1h-1.5l-0.2-1.3c-0.4,0.4-1,0.8-1.7,1.1c-0.7,0.3-1.4,0.4-2,0.4
				c-1,0-1.7-0.3-2.4-0.9c-0.6-0.6-0.9-1.4-0.9-2.4c0-1,0.4-1.8,1.2-2.3c0.6-0.3,1.1-0.6,1.8-0.7c0.6-0.1,1.4-0.3,2.4-0.4l1.5-0.2
				V712.2z M836.9,717.5v-2.9l-1.5,0.2c-1.1,0.2-1.8,0.3-2.2,0.5c-0.9,0.3-1.4,0.9-1.4,1.8c0,0.6,0.2,1,0.5,1.4s0.8,0.5,1.4,0.5
				C834.9,718.9,836,718.4,836.9,717.5z"/>
			<path class="st3" d="M847.4,717.9l3-9.1h2c-2.1,5.9-3.3,9.3-3.7,10.2c-0.4,1-0.6,1.6-0.8,2s-0.3,0.7-0.5,1.1s-0.4,0.7-0.6,1
				c-0.2,0.3-0.5,0.5-0.7,0.7c-0.2,0.1-0.5,0.3-1,0.4c-0.4,0.1-1.3,0.2-2.5,0.2l-0.2-1.6c0.9,0,1.5,0,1.6-0.1c0.2,0,0.4-0.1,0.5-0.1
				c0.2-0.1,0.3-0.1,0.4-0.2c0.1-0.1,0.2-0.2,0.3-0.3c0.3-0.3,0.7-1.1,1.1-2.3c-1.9-4.4-3.3-7.7-4.2-9.9l-0.4-1.1h2L847.4,717.9z"/>
			<path class="st3" d="M861.5,711.5h-3.1v-3.1h3.1V711.5z M861.5,718.5h-3.1v-3.1h3.1V718.5z"/>
			<path class="st2" d="M881.2,710.2v-1.4h5.1v9.8h3.2v1.4h-8.7v-1.4h3.6v-8.4H881.2z M884.1,705.8v-1c0-0.2,0.1-0.5,0.4-0.7
				c0.3-0.2,0.6-0.3,0.8-0.3s0.5,0.1,0.8,0.3c0.3,0.2,0.4,0.4,0.4,0.7v1c0,0.2-0.1,0.5-0.4,0.7c-0.3,0.2-0.6,0.3-0.8,0.3
				s-0.5-0.1-0.8-0.3C884.3,706.3,884.1,706,884.1,705.8z"/>
			<path class="st2" d="M898.5,708.4c2.3,0,3.5,1.5,3.5,4.4v7.2h-1.9v-6.9c0-0.8,0-1.4-0.1-1.7s-0.2-0.6-0.4-0.8
				c-0.3-0.5-0.9-0.7-1.7-0.7c-0.8,0-1.5,0.2-2,0.7c-0.6,0.5-0.8,1.1-0.8,1.8v7.6h-1.9v-11.2h1.7l0.1,1.2
				C895.8,708.9,896.9,708.4,898.5,708.4z"/>
			<path class="st2" d="M914.5,720H913c-1.3,0-2.3-0.1-2.8-0.4c-0.3-0.2-0.6-0.3-0.8-0.5c-0.5-0.5-0.8-1.7-0.8-3.5v-10.2h-3.4V704
				h5.2v11.5c0,1.4,0.1,2.2,0.4,2.5s0.6,0.5,0.9,0.5c0.4,0,0.8,0.1,1.1,0.1h1.7L914.5,720z"/>
			<path class="st2" d="M919,710.2v-1.4h5.1v9.8h3.2v1.4h-8.7v-1.4h3.6v-8.4H919z M921.9,705.8v-1c0-0.2,0.1-0.5,0.4-0.7
				c0.3-0.2,0.6-0.3,0.8-0.3s0.5,0.1,0.8,0.3c0.3,0.2,0.4,0.4,0.4,0.7v1c0,0.2-0.1,0.5-0.4,0.7c-0.3,0.2-0.6,0.3-0.8,0.3
				s-0.5-0.1-0.8-0.3C922.1,706.3,921.9,706,921.9,705.8z"/>
			<path class="st2" d="M936.3,708.4c2.3,0,3.5,1.5,3.5,4.4v7.2H938v-6.9c0-0.8,0-1.4-0.1-1.7s-0.2-0.6-0.4-0.8
				c-0.3-0.5-0.9-0.7-1.7-0.7c-0.8,0-1.5,0.2-2,0.7s-0.8,1.1-0.8,1.8v7.6H931v-11.2h1.7l0.1,1.2
				C933.6,708.9,934.7,708.4,936.3,708.4z"/>
			<path class="st2" d="M945.8,719.5c-0.8-0.5-1.4-1.2-1.7-2.1c-0.4-0.9-0.6-1.9-0.6-3s0.2-2.1,0.5-3c0.4-0.9,0.9-1.6,1.6-2.1
				c0.7-0.5,1.5-0.8,2.3-0.8c1.6,0,2.7,0.5,3.5,1.6s1.1,2.4,1.1,4v0.6h-7.1c0,1.2,0.3,2.1,0.9,2.9c0.5,0.8,1.3,1.2,2.4,1.2
				c0.7-0.1,1.7-0.5,3-1.2l0.6,1.3c-0.9,0.9-2.1,1.3-3.6,1.3C947.5,720.3,946.6,720,945.8,719.5z M950.7,713.3
				c-0.1-2.3-0.9-3.5-2.4-3.5c-1.7,0-2.6,1.2-2.9,3.5H950.7z"/>
			<path class="st2" d="M958.4,723.2l0.8-6.1h2.8l-1.7,6.1H958.4z M962.2,711.4h-3.1v-3.1h3.1V711.4z"/>
		</g>
	</g>
	<g>
		<path class="st31" d="M534,270h-6v1h6V270L534,270z M522,270h-6v1h6V270L522,270z M510,270h-6v1h6V270L510,270z M498,270h-6v1h6
			V270L498,270z M486,270h-6v1h6V270L486,270z M474,270h-6v1h6V270L474,270z M462,270h-6v1h6V270L462,270z M450,270h-6v1h6V270
			L450,270z M438,270h-6v1h6V270L438,270z M426,270h-6v1h6V270L426,270z M414,270h-6v1h6V270L414,270z M402,270h-6v1h6V270L402,270z
			 M390,270h-6v1h6V270L390,270z M378,270h-6v1h6V270L378,270z M366,270h-6v1h6V270L366,270z M354,270h-6v1h6V270L354,270z M342,270
			h-6v1h6V270L342,270z M330,270h-6v1h6V270L330,270z M318,270h-6v1h6V270L318,270z M306,270h-6v1h6V270L306,270z M294,270h-6v1h6
			V270L294,270z M282,270h-6v1h6V270L282,270z M270,270h-6v1h6V270L270,270z M258,270h-6v1h6V270L258,270z M246,270h-6v1h6V270
			L246,270z M234,270h-6v1h6V270L234,270z M222,270h-6v1h6V270L222,270z M210,270h-6v1h6V270L210,270z M198,270h-6v1h6V270L198,270z
			 M186,270h-6v1h6V270L186,270z M174,270h-6v1h6V270L174,270z M162,270h-6v1h6V270L162,270z M150,270h-4v1l0,0c0,0.5,0,1,0,1h1v-1
			h3V270L150,270z M147,278h-1v6h1V278L147,278z M147,290h-1v6h1V290L147,290z M147,302h-1v6h1V302L147,302z M147,314h-1v6h1V314
			L147,314z M147,326h-1v6h1V326L147,326z M147,338h-1v6h1V338L147,338z M147,350h-1v6h1V350L147,350z M147,362h-1v6h1V362L147,362z
			 M147,374h-1v6h1V374L147,374z M147,386h-1v6h1V386L147,386z M147,398h-1v6h1V398L147,398z M147,410h-1v6h1V410L147,410z M147,422
			h-1v6h1V422L147,422z M147,434h-1v6h1V434L147,434z M147,446h-1v6h1V446L147,446z M147,458h-1v6h1V458L147,458z M147,470h-1v6h1
			V470L147,470z M147,482h-1v6h1V482L147,482z M147,494h-1v6h1V494L147,494z M147,506h-1v6h1V506L147,506z M147,518h-1v6h1V518
			L147,518z M147,530h-1v6h1V530L147,530z M147,542h-1v6h1V542L147,542z M147,554h-1v6h1V554L147,554z M147,566h-1v6h1V566L147,566z
			 M147,578h-1v6h1V578L147,578z M147,590h-1v6h1V590L147,590z M147,602h-1v6h1V602L147,602z M147,614h-1v6h1V614L147,614z M147,626
			h-1v6h1V626L147,626z M147,638h-1v6h1V638L147,638z M147,650h-1v6h1V650L147,650z M147,662h-1v6h1V662L147,662z M156,669h-6v1h6
			V669L156,669z M168,669h-6v1h6V669L168,669z M180,669h-6v1h6V669L180,669z M192,669h-6v1h6V669L192,669z M204,669h-6v1h6V669
			L204,669z M216,669h-6v1h6V669L216,669z M228,669h-6v1h6V669L228,669z M240,669h-6v1h6V669L240,669z M252,669h-6v1h6V669L252,669z
			 M264,669h-6v1h6V669L264,669z M276,669h-6v1h6V669L276,669z M288,669h-6v1h6V669L288,669z M300,669h-6v1h6V669L300,669z M312,669
			h-6v1h6V669L312,669z M324,669h-6v1h6V669L324,669z M336,669h-6v1h6V669L336,669z M348,669h-6v1h6V669L348,669z M360,669h-6v1h6
			V669L360,669z M372,669h-6v1h6V669L372,669z M384,669h-6v1h6V669L384,669z M396,669h-6v1h6V669L396,669z M408,669h-6v1h6V669
			L408,669z M420,669h-6v1h6V669L420,669z M432,669h-6v1h6V669L432,669z M444,669h-6v1h6V669L444,669z M456,669h-6v1h6V669L456,669z
			 M468,669h-6v1h6V669L468,669z M480,669h-6v1h6V669L480,669z M492,669h-6v1h6V669L492,669z M504,669h-6v1h6V669L504,669z M516,669
			h-6v1h6V669L516,669z M528,669h-6v1h6V669L528,669z M540,669h-6v1h6V669L540,669z M546,664h-1v6h1V664L546,664z M546,652h-1v6h1
			V652L546,652z M546,640h-1v6h1V640L546,640z M546,628h-1v6h1V628L546,628z M546,616h-1v6h1V616L546,616z M546,604h-1v6h1V604
			L546,604z M546,592h-1v6h1V592L546,592z M546,580h-1v6h1V580L546,580z M546,568h-1v6h1V568L546,568z M546,556h-1v6h1V556L546,556z
			 M546,544h-1v6h1V544L546,544z M546,532h-1v6h1V532L546,532z M546,520h-1v6h1V520L546,520z M546,508h-1v6h1V508L546,508z M546,496
			h-1v6h1V496L546,496z M546,484h-1v6h1V484L546,484z M546,472h-1v6h1V472L546,472z M546,460h-1v6h1V460L546,460z M546,448h-1v6h1
			V448L546,448z M546,436h-1v6h1V436L546,436z M546,424h-1v6h1V424L546,424z M546,412h-1v6h1V412L546,412z M546,400h-1v6h1V400
			L546,400z M546,388h-1v6h1V388L546,388z M546,376h-1v6h1V376L546,376z M546,364h-1v6h1V364L546,364z M546,352h-1v6h1V352L546,352z
			 M546,340h-1v6h1V340L546,340z M546,328h-1v6h1V328L546,328z M546,316h-1v6h1V316L546,316z M546,304h-1v6h1V304L546,304z M546,292
			h-1v6h1V292L546,292z M546,280h-1v6h1V280L546,280z M546,270h-6v1h5v3h1V270L546,270z"/>
	</g>
	<g>
		<path class="st31" d="M1054,270h-6v1h6V270L1054,270z M1042,270h-6v1h6V270L1042,270z M1030,270h-6v1h6V270L1030,270z M1018,270
			h-6v1h6V270L1018,270z M1006,270h-6v1h6V270L1006,270z M994,270h-6v1h6V270L994,270z M982,270h-6v1h6V270L982,270z M970,270h-6v1
			h6V270L970,270z M958,270h-6v1h6V270L958,270z M946,270h-6v1h6V270L946,270z M934,270h-6v1h6V270L934,270z M922,270h-6v1h6V270
			L922,270z M910,270h-6v1h6V270L910,270z M898,270h-6v1h6V270L898,270z M886,270h-6v1h6V270L886,270z M874,270h-6v1h6V270L874,270z
			 M862,270h-6v1h6V270L862,270z M850,270h-6v1h6V270L850,270z M838,270h-6v1h6V270L838,270z M826,270h-6v1h6V270L826,270z M814,270
			h-6v1h6V270L814,270z M802,270h-6v1h6V270L802,270z M790,270h-6v1h6V270L790,270z M778,270h-6v1h6V270L778,270z M766,270h-6v1h6
			V270L766,270z M754,270h-6v1h6V270L754,270z M742,270h-6v1h6V270L742,270z M730,270h-6v1h6V270L730,270z M718,270h-6v1h6V270
			L718,270z M706,270h-6v1h6V270L706,270z M694,270h-6v1h6V270L694,270z M682,270h-6v1h6V270L682,270z M670,270h-4v1l0,0
			c0,0.5,0,1,0,1h1v-1h3V270L670,270z M667,278h-1v6h1V278L667,278z M667,290h-1v6h1V290L667,290z M667,302h-1v6h1V302L667,302z
			 M667,314h-1v6h1V314L667,314z M667,326h-1v6h1V326L667,326z M667,338h-1v6h1V338L667,338z M667,350h-1v6h1V350L667,350z M667,362
			h-1v6h1V362L667,362z M667,374h-1v6h1V374L667,374z M667,386h-1v6h1V386L667,386z M667,398h-1v6h1V398L667,398z M667,410h-1v6h1
			V410L667,410z M667,422h-1v6h1V422L667,422z M667,434h-1v6h1V434L667,434z M667,446h-1v6h1V446L667,446z M667,458h-1v6h1V458
			L667,458z M667,470h-1v6h1V470L667,470z M667,482h-1v6h1V482L667,482z M667,494h-1v6h1V494L667,494z M667,506h-1v6h1V506L667,506z
			 M667,518h-1v6h1V518L667,518z M667,530h-1v6h1V530L667,530z M667,542h-1v6h1V542L667,542z M667,554h-1v6h1V554L667,554z M667,566
			h-1v6h1V566L667,566z M667,578h-1v6h1V578L667,578z M667,590h-1v6h1V590L667,590z M667,602h-1v6h1V602L667,602z M667,614h-1v6h1
			V614L667,614z M667,626h-1v6h1V626L667,626z M667,638h-1v6h1V638L667,638z M667,650h-1v6h1V650L667,650z M667,662h-1v6h1V662
			L667,662z M676,669h-6v1h6V669L676,669z M688,669h-6v1h6V669L688,669z M700,669h-6v1h6V669L700,669z M712,669h-6v1h6V669L712,669z
			 M724,669h-6v1h6V669L724,669z M736,669h-6v1h6V669L736,669z M748,669h-6v1h6V669L748,669z M760,669h-6v1h6V669L760,669z M772,669
			h-6v1h6V669L772,669z M784,669h-6v1h6V669L784,669z M796,669h-6v1h6V669L796,669z M808,669h-6v1h6V669L808,669z M820,669h-6v1h6
			V669L820,669z M832,669h-6v1h6V669L832,669z M844,669h-6v1h6V669L844,669z M856,669h-6v1h6V669L856,669z M868,669h-6v1h6V669
			L868,669z M880,669h-6v1h6V669L880,669z M892,669h-6v1h6V669L892,669z M904,669h-6v1h6V669L904,669z M916,669h-6v1h6V669L916,669z
			 M928,669h-6v1h6V669L928,669z M940,669h-6v1h6V669L940,669z M952,669h-6v1h6V669L952,669z M964,669h-6v1h6V669L964,669z M976,669
			h-6v1h6V669L976,669z M988,669h-6v1h6V669L988,669z M1000,669h-6v1h6V669L1000,669z M1012,669h-6v1h6V669L1012,669z M1024,669h-6
			v1h6V669L1024,669z M1036,669h-6v1h6V669L1036,669z M1048,669h-6v1h6V669L1048,669z M1060,669h-6v1h6V669L1060,669z M1066,664h-1
			v6h1V664L1066,664z M1066,652h-1v6h1V652L1066,652z M1066,640h-1v6h1V640L1066,640z M1066,628h-1v6h1V628L1066,628z M1066,616h-1
			v6h1V616L1066,616z M1066,604h-1v6h1V604L1066,604z M1066,592h-1v6h1V592L1066,592z M1066,580h-1v6h1V580L1066,580z M1066,568h-1
			v6h1V568L1066,568z M1066,556h-1v6h1V556L1066,556z M1066,544h-1v6h1V544L1066,544z M1066,532h-1v6h1V532L1066,532z M1066,520h-1
			v6h1V520L1066,520z M1066,508h-1v6h1V508L1066,508z M1066,496h-1v6h1V496L1066,496z M1066,484h-1v6h1V484L1066,484z M1066,472h-1
			v6h1V472L1066,472z M1066,460h-1v6h1V460L1066,460z M1066,448h-1v6h1V448L1066,448z M1066,436h-1v6h1V436L1066,436z M1066,424h-1
			v6h1V424L1066,424z M1066,412h-1v6h1V412L1066,412z M1066,400h-1v6h1V400L1066,400z M1066,388h-1v6h1V388L1066,388z M1066,376h-1
			v6h1V376L1066,376z M1066,364h-1v6h1V364L1066,364z M1066,352h-1v6h1V352L1066,352z M1066,340h-1v6h1V340L1066,340z M1066,328h-1
			v6h1V328L1066,328z M1066,316h-1v6h1V316L1066,316z M1066,304h-1v6h1V304L1066,304z M1066,292h-1v6h1V292L1066,292z M1066,280h-1
			v6h1V280L1066,280z M1066,270h-6v1h5v3h1V270L1066,270z"/>
	</g>
	<rect x="166" y="290" class="st39" width="200" height="100"/>
	<rect x="686" y="290" class="st39" width="200" height="100"/>
	<rect x="686" y="400" class="st39" width="100" height="100"/>
	<rect x="796" y="400" class="st39" width="175" height="100"/>
	<rect x="896" y="290" class="st39" width="150" height="100"/>
	<rect x="166" y="510" class="st39" width="140" height="100"/>
	<rect x="166" y="400" class="st39" width="280" height="100"/>
	<g>
		<path class="st2" d="M252.8,342.2v1.8l-10.5-5.1v-1.2l10.5-5.3v1.8l-8,4L252.8,342.2z"/>
		<path class="st2" d="M264.1,339.2v6.8h-1.9v-6.6c0-1.4-0.2-2.4-0.6-2.9c-0.4-0.5-0.9-0.7-1.7-0.7c-0.8,0-1.4,0.3-2,0.8
			c-0.6,0.5-0.8,1.1-0.8,1.7v7.6h-1.9v-15.8l1.9-0.2v6.2c0.9-1.1,2-1.7,3.5-1.7C263,334.4,264.1,336,264.1,339.2z"/>
		<path class="st2" d="M268.4,332.8c0.9-0.4,2.1-1.1,3.4-2.1h1.9v13.8h3.2v1.5h-8.6v-1.5h3.4v-11.7c-0.2,0.1-0.7,0.4-1.4,0.9
			c-0.8,0.5-1.4,0.8-2,1V332.8z"/>
		<path class="st2" d="M280.2,334.2v-1.7l10.5,5.4v1l-10.5,5v-1.7l8-3.8L280.2,334.2z"/>
	</g>
	<g>
		<g>
			<path class="st3" d="M433.4,331.3c-1.8,0-3.2-0.6-4.2-1.8s-1.6-2.8-1.6-4.8c0-2,0.5-3.6,1.5-4.8s2.3-1.9,4-1.9
				c1.5,0,2.7,0.5,3.6,1.6s1.4,2.5,1.4,4.3c0,0.1,0,0.2,0,0.4s0,0.4,0,0.5h-8.9c0,1.6,0.4,3,1.2,3.9s1.8,1.4,3.1,1.4
				c0.8,0,1.6-0.1,2.2-0.3s1.3-0.5,1.9-0.8l0.2,1.1C436.4,330.9,435,331.3,433.4,331.3z M429.2,323.6h7.3c0-1.4-0.3-2.5-0.9-3.3
				s-1.5-1.1-2.5-1.1c-1.1,0-2,0.4-2.6,1.2S429.3,322.3,429.2,323.6z"/>
			<path class="st3" d="M441,331c0-7.8,0-12,0-12.8h1.3l0.2,2c0.4-0.6,0.9-1.2,1.7-1.6s1.5-0.6,2.4-0.6c2.1,0,3.3,0.8,3.9,2.4
				c0.9-1.6,2.4-2.4,4.3-2.4c1.4,0,2.4,0.4,3.1,1.2s1,2,1,3.6v8.3h-1.5v-6.3c0-0.6,0-1.1,0-1.5s-0.1-0.8-0.1-1.3s-0.1-0.9-0.3-1.1
				s-0.3-0.6-0.5-0.8s-0.4-0.5-0.8-0.6s-0.7-0.2-1.1-0.2c-1,0-1.8,0.3-2.5,0.9s-1.2,1.4-1.4,2.5c0,0.8,0,1.4,0.1,1.9v6.7h-1.4v-6.5
				c0-0.7,0-1.2-0.1-1.7s-0.1-1-0.2-1.4s-0.3-0.9-0.5-1.1s-0.5-0.5-0.8-0.7s-0.7-0.3-1.2-0.3c-1.1,0-2,0.3-2.7,0.8s-1.2,1.3-1.4,2.3
				c0,0.3,0,0.8,0,1.4v7.3H441z"/>
			<path class="st3" d="M462.1,336.7v-18.6h1.3l0.1,1.8c0.6-0.7,1.2-1.2,1.8-1.5s1.3-0.5,2.2-0.5c1.8,0,3.2,0.6,4.1,1.8
				s1.4,2.9,1.4,5c0,1.9-0.5,3.5-1.4,4.7s-2.3,1.8-3.9,1.8c-0.8,0-1.6-0.2-2.4-0.6s-1.3-0.9-1.8-1.6c0,1,0.1,1.9,0.1,2.8v4.7
				L462.1,336.7z M467.6,330.1c0.7,0,1.3-0.2,1.8-0.5s0.9-0.7,1.2-1.3s0.5-1.1,0.7-1.7s0.2-1.3,0.2-2c0-0.7-0.1-1.3-0.2-2
				s-0.4-1.2-0.7-1.7s-0.7-1-1.2-1.3s-1.1-0.5-1.8-0.5c-0.7,0-1.4,0.1-1.9,0.4s-0.9,0.6-1.3,1.1s-0.5,1-0.7,1.7s-0.2,1.3-0.2,2.1
				c0,0.9,0.1,1.7,0.2,2.3s0.3,1.3,0.7,1.8s0.7,0.9,1.2,1.2S466.8,330.1,467.6,330.1z"/>
			<path class="st3" d="M479.5,331.3c-1.1,0-1.9-0.2-2.4-0.7s-0.8-1.3-0.8-2.4v-8.9h-1.8l0.1-0.9l1.7-0.2l0.4-2.9l1-0.1v3h3.8v1.1
				h-3.8v8.6c0,0.9,0.1,1.5,0.4,1.8s0.8,0.5,1.6,0.5c0.5,0,1.1-0.1,1.8-0.3l0.1,1.1C480.7,331.2,480,331.3,479.5,331.3z"/>
			<path class="st3" d="M483.2,337.1c-0.3,0-0.7,0-1-0.1l-0.1-1.2c0,0,0.1,0,0.3,0s0.4,0,0.5,0c1,0,1.7-0.2,2.2-0.5s0.9-1,1.3-2
				c0-0.1,0.2-0.5,0.4-1s0.4-1,0.5-1.3l-5.1-12.9h1.5l4.4,11.6l0.5-1.6c2.1-6.7,3.2-10.1,3.3-10.1c0,0,0,0,0,0.1h1.5
				c-3.4,9.6-5.2,14.6-5.4,15.1c-0.5,1.3-1.2,2.3-1.9,2.9S484.4,337.1,483.2,337.1z"/>
			<path class="st3" d="M434.8,360.1c-0.8,0-1.6-0.1-2.3-0.3s-1.3-0.4-1.7-0.7l0.2-1.2c1.3,0.7,2.5,1,3.7,1c2.1,0,3.2-0.8,3.3-2.4
				c0-0.7-0.2-1.2-0.6-1.5s-1.3-0.8-2.6-1.2c-0.7-0.2-1-0.4-1.1-0.4c-2-0.6-3-1.7-3-3.2c0-0.9,0.4-1.7,1.2-2.4s1.9-1,3.2-1
				s2.6,0.3,3.8,0.8l-0.5,1.1c-1.2-0.5-2.3-0.7-3.4-0.7c-0.9,0-1.6,0.2-2.1,0.6s-0.8,1-0.8,1.6c0,0.6,0.2,1,0.5,1.3s1,0.6,2,0.9
				c0.1,0,0.3,0.1,0.6,0.2s0.5,0.2,0.5,0.2c1.4,0.4,2.3,0.9,2.8,1.5s0.8,1.3,0.8,2.3c0,1.1-0.4,2-1.3,2.6S436.1,360.1,434.8,360.1z"
				/>
			<path class="st3" d="M442.1,365.5V347h1.3l0.1,1.8c0.6-0.7,1.2-1.2,1.8-1.5s1.3-0.5,2.2-0.5c1.8,0,3.2,0.6,4.1,1.8s1.4,2.9,1.4,5
				c0,1.9-0.5,3.5-1.4,4.7s-2.3,1.8-3.9,1.8c-0.8,0-1.6-0.2-2.4-0.6s-1.3-0.9-1.8-1.6c0,1,0.1,1.9,0.1,2.8v4.7L442.1,365.5z
				 M447.6,358.9c0.7,0,1.3-0.2,1.8-0.5s0.9-0.7,1.2-1.3s0.5-1.1,0.7-1.7s0.2-1.3,0.2-2c0-0.7-0.1-1.3-0.2-2s-0.4-1.2-0.7-1.7
				s-0.7-1-1.2-1.3s-1.1-0.5-1.8-0.5c-0.7,0-1.4,0.1-1.9,0.4s-0.9,0.6-1.3,1.1s-0.5,1-0.7,1.7s-0.2,1.3-0.2,2.1
				c0,0.9,0.1,1.7,0.2,2.3s0.3,1.3,0.7,1.8s0.7,0.9,1.2,1.2S446.8,358.9,447.6,358.9z"/>
			<path class="st3" d="M459.2,360.1c-1.2,0-2.2-0.3-2.9-0.9s-1.1-1.5-1.1-2.6c0-0.7,0.1-1.3,0.4-1.8s0.7-0.9,1.3-1.2
				s1.2-0.5,1.9-0.7s1.5-0.3,2.5-0.4c1-0.1,1.7-0.1,2.2-0.2v-1.4c0-1-0.2-1.7-0.7-2.2s-1.2-0.7-2.2-0.7c-1.4,0-2.6,0.3-3.8,1
				c0-0.1-0.1-0.2-0.2-0.5s-0.2-0.5-0.2-0.6c0.5-0.3,1.1-0.6,1.9-0.8s1.5-0.3,2.3-0.3c1.5,0,2.6,0.3,3.3,1s1,1.8,1,3.5v8.6h-1.1
				c0-0.2-0.1-0.5-0.2-1.1s-0.1-0.8-0.1-0.8C462.4,359.4,461,360.1,459.2,360.1z M459.2,358.9c1,0,1.9-0.3,2.7-0.9s1.3-1.4,1.5-2.5
				v-2.2c-1.1,0.1-1.7,0.1-1.7,0.1c-1.9,0.2-3.2,0.5-4,0.9s-1.1,1.2-1.1,2.1c0,0.8,0.2,1.4,0.7,1.8S458.4,358.9,459.2,358.9z"/>
			<path class="st3" d="M473.7,360.1c-1.2,0-2.3-0.3-3.2-0.9s-1.6-1.4-2-2.4s-0.7-2.1-0.7-3.3c0-0.9,0.1-1.8,0.4-2.6
				s0.6-1.5,1.1-2.2s1.1-1.1,1.9-1.5s1.6-0.5,2.6-0.5c0.6,0,1.2,0.1,1.8,0.2s1.1,0.4,1.4,0.6l-0.5,1.1c-0.8-0.5-1.8-0.7-2.9-0.7
				c-1.3,0-2.4,0.5-3.2,1.5s-1.2,2.4-1.2,4c0,1.6,0.4,2.9,1.2,3.9s1.8,1.5,3.2,1.5c0.9,0,1.9-0.2,3-0.7l0.2,1
				c-0.4,0.3-0.8,0.5-1.4,0.6S474.3,360.1,473.7,360.1z"/>
			<path class="st3" d="M484.8,360.1c-1.8,0-3.2-0.6-4.2-1.8s-1.6-2.8-1.6-4.8c0-2,0.5-3.6,1.5-4.8s2.3-1.9,4-1.9
				c1.5,0,2.7,0.5,3.6,1.6s1.4,2.5,1.4,4.3c0,0.1,0,0.2,0,0.4s0,0.4,0,0.5h-8.9c0,1.6,0.4,3,1.2,3.9s1.8,1.4,3.1,1.4
				c0.8,0,1.6-0.1,2.2-0.3s1.3-0.5,1.9-0.8l0.2,1.1C487.9,359.7,486.4,360.1,484.8,360.1z M480.6,352.4h7.3c0-1.4-0.3-2.5-0.9-3.3
				s-1.5-1.1-2.5-1.1c-1.1,0-2,0.4-2.6,1.2S480.7,351.1,480.6,352.4z"/>
		</g>
	</g>
	<g>
		<path class="st2" d="M766.5,342.2v1.8l-10.5-5.1v-1.2l10.5-5.3v1.8l-8,4L766.5,342.2z"/>
		<path class="st2" d="M769.7,336.2v-1.4h5.1v9.8h3.2v1.4h-8.7v-1.4h3.6v-8.4H769.7z M772.6,331.8v-1c0-0.2,0.1-0.5,0.4-0.7
			c0.3-0.2,0.6-0.3,0.8-0.3c0.3,0,0.5,0.1,0.8,0.3c0.3,0.2,0.4,0.4,0.4,0.7v1c0,0.2-0.1,0.5-0.4,0.7c-0.3,0.2-0.6,0.3-0.8,0.3
			c-0.3,0-0.5-0.1-0.8-0.3C772.8,332.3,772.6,332,772.6,331.8z"/>
		<path class="st2" d="M786.5,336.2c0.5-1.2,1.2-1.7,2.4-1.7c1.4,0,2.2,1,2.4,3.1c0,0.4,0.1,0.8,0.1,1.3v7.2h-1.7v-7
			c0-1.3-0.1-2.2-0.3-2.5c-0.2-0.3-0.3-0.5-0.5-0.6c-0.1-0.1-0.3-0.1-0.5-0.1c-0.6,0-1,0.3-1.3,1c-0.2,0.4-0.2,1.2-0.2,2.2v7h-1.6
			v-6.9c0-1.5-0.2-2.5-0.5-2.9c-0.2-0.2-0.4-0.3-0.8-0.3c-0.3,0-0.6,0.2-0.9,0.5c-0.5,0.6-0.7,1.3-0.7,2.3v7.4h-1.7v-11.2h1.5
			l0.1,1.5c0.2-0.5,0.5-0.9,0.8-1.3s0.8-0.5,1.3-0.5c0.5,0,1,0.2,1.3,0.5C786.2,335.2,786.4,335.6,786.5,336.2z"/>
		<path class="st2" d="M801.4,343.8c-0.2,0.6-0.6,1.1-1.2,1.5s-1.2,0.6-2,0.6c-1.4,0-2.5-0.6-3.4-1.7c-0.8-1.1-1.2-2.5-1.2-4
			c0-2.1,0.5-3.7,1.6-4.8c0.8-0.7,1.8-1.1,3.1-1.1s2.3,0.6,3.1,1.9l0.1-1.5h1.9c-0.1,1.7-0.1,3.9-0.1,6.7v3c0,2.4-0.5,4.1-1.6,4.9
			c-0.8,0.6-1.9,1-3.4,1.2c-0.8,0.1-1.6,0.1-2.7,0.1l-0.2-1.4c1.5,0,2.6-0.1,3.2-0.3c0.6-0.2,1.1-0.4,1.4-0.6s0.5-0.5,0.8-0.9
			c0.4-0.6,0.6-1.6,0.6-3V343.8z M800.5,336.7c-0.2-0.3-0.5-0.5-0.9-0.6s-0.8-0.2-1.2-0.2c-0.5,0-0.9,0.1-1.2,0.2
			c-0.6,0.3-1.1,0.8-1.3,1.5c-0.2,0.7-0.4,1.5-0.4,2.2s0,1.3,0.1,1.7c0.1,0.8,0.4,1.5,0.9,2s1.1,0.8,1.9,0.8c1.3,0,2.2-0.6,2.7-1.8
			c0.3-0.6,0.4-1.3,0.4-2c0-0.7,0-1.2-0.1-1.6c-0.1-0.4-0.1-0.8-0.3-1.2S800.7,337,800.5,336.7z"/>
		<path class="st2" d="M806.5,334.2v-1.7l10.5,5.4v1l-10.5,5v-1.7l8-3.8L806.5,334.2z"/>
	</g>
	<g>
		<path class="st2" d="M716.5,452.2v1.8l-10.5-5.1v-1.2l10.5-5.3v1.8l-8,4L716.5,452.2z"/>
		<path class="st2" d="M719.7,446.2v-1.4h5.1v9.8h3.2v1.4h-8.7v-1.4h3.6v-8.4H719.7z M722.6,441.8v-1c0-0.2,0.1-0.5,0.4-0.7
			c0.3-0.2,0.6-0.3,0.8-0.3c0.3,0,0.5,0.1,0.8,0.3c0.3,0.2,0.4,0.4,0.4,0.7v1c0,0.2-0.1,0.5-0.4,0.7c-0.3,0.2-0.6,0.3-0.8,0.3
			c-0.3,0-0.5-0.1-0.8-0.3C722.8,442.3,722.6,442,722.6,441.8z"/>
		<path class="st2" d="M736.5,446.2c0.5-1.2,1.2-1.7,2.4-1.7c1.4,0,2.2,1,2.4,3.1c0,0.4,0.1,0.8,0.1,1.3v7.2h-1.7v-7
			c0-1.3-0.1-2.2-0.3-2.5c-0.2-0.3-0.3-0.5-0.5-0.6c-0.1-0.1-0.3-0.1-0.5-0.1c-0.6,0-1,0.3-1.3,1c-0.2,0.4-0.2,1.2-0.2,2.2v7h-1.6
			v-6.9c0-1.5-0.2-2.5-0.5-2.9c-0.2-0.2-0.4-0.3-0.8-0.3c-0.3,0-0.6,0.2-0.9,0.5c-0.5,0.6-0.7,1.3-0.7,2.3v7.4h-1.7v-11.2h1.5
			l0.1,1.5c0.2-0.5,0.5-0.9,0.8-1.3s0.8-0.5,1.3-0.5c0.5,0,1,0.2,1.3,0.5C736.2,445.2,736.4,445.6,736.5,446.2z"/>
		<path class="st2" d="M751.4,453.8c-0.2,0.6-0.6,1.1-1.2,1.5s-1.2,0.6-2,0.6c-1.4,0-2.5-0.6-3.4-1.7c-0.8-1.1-1.2-2.5-1.2-4
			c0-2.1,0.5-3.7,1.6-4.8c0.8-0.7,1.8-1.1,3.1-1.1s2.3,0.6,3.1,1.9l0.1-1.5h1.9c-0.1,1.7-0.1,3.9-0.1,6.7v3c0,2.4-0.5,4.1-1.6,4.9
			c-0.8,0.6-1.9,1-3.4,1.2c-0.8,0.1-1.6,0.1-2.7,0.1l-0.2-1.4c1.5,0,2.6-0.1,3.2-0.3c0.6-0.2,1.1-0.4,1.4-0.6s0.5-0.5,0.8-0.9
			c0.4-0.6,0.6-1.6,0.6-3V453.8z M750.5,446.7c-0.2-0.3-0.5-0.5-0.9-0.6s-0.8-0.2-1.2-0.2c-0.5,0-0.9,0.1-1.2,0.2
			c-0.6,0.3-1.1,0.8-1.3,1.5c-0.2,0.7-0.4,1.5-0.4,2.2s0,1.3,0.1,1.7c0.1,0.8,0.4,1.5,0.9,2s1.1,0.8,1.9,0.8c1.3,0,2.2-0.6,2.7-1.8
			c0.3-0.6,0.4-1.3,0.4-2c0-0.7,0-1.2-0.1-1.6c-0.1-0.4-0.1-0.8-0.3-1.2S750.7,447,750.5,446.7z"/>
		<path class="st2" d="M756.5,444.2v-1.7l10.5,5.4v1l-10.5,5v-1.7l8-3.8L756.5,444.2z"/>
	</g>
	<g>
		<path class="st2" d="M876.6,452.2v1.8l-10.5-5.1v-1.2l10.5-5.3v1.8l-8,4L876.6,452.2z"/>
		<path class="st2" d="M885.9,448.2c0-1.6-0.7-2.4-2-2.4c-0.6,0-1.4,0.1-2.1,0.2c-0.8,0.2-1.3,0.3-1.6,0.4l-0.4-1.4
			c1.4-0.5,2.7-0.7,4-0.7s2.2,0.3,3,0.9s1.1,1.4,1.1,2.6v8.1h-1.5l-0.2-1.3c-0.4,0.4-1,0.8-1.7,1.1c-0.7,0.3-1.4,0.4-2,0.4
			c-1,0-1.7-0.3-2.4-0.9S879,454,879,453s0.4-1.8,1.2-2.3c0.6-0.3,1.1-0.6,1.8-0.7c0.6-0.1,1.4-0.3,2.4-0.4l1.5-0.2V448.2z
			 M885.9,453.5v-2.9l-1.5,0.2c-1.1,0.2-1.8,0.3-2.2,0.5c-0.9,0.3-1.4,0.9-1.4,1.8c0,0.6,0.2,1,0.5,1.4s0.8,0.5,1.4,0.5
			C883.9,454.9,885,454.4,885.9,453.5z"/>
		<path class="st2" d="M891.4,444.2v-1.7l10.5,5.4v1l-10.5,5v-1.7l8-3.8L891.4,444.2z"/>
	</g>
	<g>
		<path class="st2" d="M951.5,342.2v1.8l-10.5-5.1v-1.2l10.5-5.3v1.8l-8,4L951.5,342.2z"/>
		<path class="st2" d="M954.7,336.2v-1.4h5.1v9.8h3.2v1.4h-8.7v-1.4h3.6v-8.4H954.7z M957.6,331.8v-1c0-0.2,0.1-0.5,0.4-0.7
			c0.3-0.2,0.6-0.3,0.8-0.3c0.3,0,0.5,0.1,0.8,0.3c0.3,0.2,0.4,0.4,0.4,0.7v1c0,0.2-0.1,0.5-0.4,0.7c-0.3,0.2-0.6,0.3-0.8,0.3
			c-0.3,0-0.5-0.1-0.8-0.3C957.8,332.3,957.6,332,957.6,331.8z"/>
		<path class="st2" d="M971.5,336.2c0.5-1.2,1.2-1.7,2.4-1.7c1.4,0,2.2,1,2.4,3.1c0,0.4,0.1,0.8,0.1,1.3v7.2h-1.7v-7
			c0-1.3-0.1-2.2-0.3-2.5c-0.2-0.3-0.3-0.5-0.5-0.6c-0.1-0.1-0.3-0.1-0.5-0.1c-0.6,0-1,0.3-1.3,1c-0.2,0.4-0.2,1.2-0.2,2.2v7h-1.6
			v-6.9c0-1.5-0.2-2.5-0.5-2.9c-0.2-0.2-0.4-0.3-0.8-0.3c-0.3,0-0.6,0.2-0.9,0.5c-0.5,0.6-0.7,1.3-0.7,2.3v7.4h-1.7v-11.2h1.5
			l0.1,1.5c0.2-0.5,0.5-0.9,0.8-1.3s0.8-0.5,1.3-0.5c0.5,0,1,0.2,1.3,0.5C971.2,335.2,971.4,335.6,971.5,336.2z"/>
		<path class="st2" d="M986.4,343.8c-0.2,0.6-0.6,1.1-1.2,1.5s-1.2,0.6-2,0.6c-1.4,0-2.5-0.6-3.4-1.7c-0.8-1.1-1.2-2.5-1.2-4
			c0-2.1,0.5-3.7,1.6-4.8c0.8-0.7,1.8-1.1,3.1-1.1s2.3,0.6,3.1,1.9l0.1-1.5h1.9c-0.1,1.7-0.1,3.9-0.1,6.7v3c0,2.4-0.5,4.1-1.6,4.9
			c-0.8,0.6-1.9,1-3.4,1.2c-0.8,0.1-1.6,0.1-2.7,0.1l-0.2-1.4c1.5,0,2.6-0.1,3.2-0.3c0.6-0.2,1.1-0.4,1.4-0.6s0.5-0.5,0.8-0.9
			c0.4-0.6,0.6-1.6,0.6-3V343.8z M985.5,336.7c-0.2-0.3-0.5-0.5-0.9-0.6s-0.8-0.2-1.2-0.2c-0.5,0-0.9,0.1-1.2,0.2
			c-0.6,0.3-1.1,0.8-1.3,1.5c-0.2,0.7-0.4,1.5-0.4,2.2s0,1.3,0.1,1.7c0.1,0.8,0.4,1.5,0.9,2s1.1,0.8,1.9,0.8c1.3,0,2.2-0.6,2.7-1.8
			c0.3-0.6,0.4-1.3,0.4-2c0-0.7,0-1.2-0.1-1.6c-0.1-0.4-0.1-0.8-0.3-1.2S985.7,337,985.5,336.7z"/>
		<path class="st2" d="M991.5,334.2v-1.7l10.5,5.4v1l-10.5,5v-1.7l8-3.8L991.5,334.2z"/>
	</g>
	<g>
		<path class="st2" d="M299.1,452.2v1.8l-10.5-5.1v-1.2l10.5-5.3v1.8l-8,4L299.1,452.2z"/>
		<path class="st2" d="M306.4,456.3c-0.7,0-1.4-0.2-1.9-0.5s-1-0.8-1.3-1.3v5.9l-1.9,0.2v-15.8h1.9v1.5c0.3-0.6,0.8-1,1.3-1.4
			s1.2-0.5,1.9-0.5c1.9,0,3.2,0.8,3.9,2.3c0.5,1,0.7,2.1,0.7,3.5c0,2.1-0.5,3.8-1.5,4.9C308.8,455.9,307.7,456.3,306.4,456.3z
			 M303.2,450.3c0,3,1.1,4.5,3.2,4.5c1.9,0,2.8-1.5,2.8-4.5c0-1.7-0.3-2.8-0.8-3.5c-0.5-0.7-1.2-1-2.1-1c-1.8,0-2.8,1-3,3
			C303.2,449.3,303.2,449.8,303.2,450.3z"/>
		<path class="st2" d="M313.9,444.2v-1.7l10.5,5.4v1l-10.5,5v-1.7l8-3.8L313.9,444.2z"/>
	</g>
	<g>
		<path class="st2" d="M222.8,562.2v1.8l-10.5-5.1v-1.2l10.5-5.3v1.8l-8,4L222.8,562.2z"/>
		<path class="st2" d="M234.1,562.3c0,2.6-1.5,3.9-4.3,3.9c-2.9,0-4.3-1.3-4.3-3.9v-7.6h1.9v7.8c0,0.8,0.2,1.4,0.6,1.8
			c0.4,0.4,1,0.6,1.9,0.6s1.5-0.2,1.9-0.6c0.4-0.4,0.6-1,0.6-1.8v-7.8h1.9V562.3z"/>
		<path class="st2" d="M246.7,566h-1.5c-1.3,0-2.3-0.1-2.8-0.4c-0.3-0.2-0.6-0.3-0.8-0.5c-0.5-0.5-0.8-1.7-0.8-3.5v-10.2h-3.4V550
			h5.2v11.5c0,1.4,0.1,2.2,0.4,2.5c0.2,0.3,0.6,0.5,0.9,0.5c0.4,0,0.8,0.1,1.1,0.1h1.7L246.7,566z"/>
		<path class="st2" d="M250.2,554.2v-1.7l10.5,5.4v1l-10.5,5v-1.7l8-3.8L250.2,554.2z"/>
	</g>
</g>
</svg>
